{"title":"Greatest.Drives.Head.On.Sports.Cars.2004.DVDRip.XviD-SPRiNTER","uid":5811069,"size":742749843,"categoryP":"video","categoryS":"movies","magnet":"?xt=urn:btih:e7c1ecb37c16ea174a8ffc9bcc14c2b5ed3b5405&amp;dn=Greatest.Drives.Head.On.Sports.Cars.2004.DVDRip.XviD-SPRiNTER&amp;tr=udp%3A%2F%2Ftracker.openbittorrent.com%3A80&amp;tr=udp%3A%2F%2Fopen.demonii.com%3A1337&amp;tr=udp%3A%2F%2Ftracker.coppersurfer.tk%3A6969&amp;tr=udp%3A%2F%2Fexodus.desync.com%3A6969","seeders":0,"leechers":0,"uploader":"TvTeam","files":5,"time":1283634693,"description":". \n  &lt;a href=&quot;\nhttp://www.torrentday.com/&quot; rel=&quot;nofollow&quot; target=&quot;_NEW&quot;&gt;\nhttp://www.torrentday.com/&lt;/a&gt;        :     The Hottest Private Tracker On The Net!!!\n\n\n               www . TorrentDay . Com \n(((((((((((((= Enjoy No RAR releases =))))))))))))))))))))\n\n\n...................................NFO:....................................\n\n.\n                                                     \n                                                   \n                                                         \n                                                          \n                                                           \n                                                          \n                                                          \n                                                          \n                                                           \n                                                         \n                                                          \n                                                        \n                                                      \n                                     \n                                                 \n                                                   \n                                             \n                                              \n                                                     \n                                                      \n                                                      \n                                                      \n                                                    \n                                                     \n                                                   \n                                                     \n                                                     \n                                                      \n                                                     \n                                                      \n                                                    \n                 ARTiCHOKE                        \n                                                \n                      \n                                                        \n                                                      \n                                                      \n                                               \n                                          \n                                                   \n                                            \n                                                    \n                                                       \n                                                        \n                                                      \n                                                \n                                                        \n                                                 \n                                              \n                                                  \n                                                \n                                                  \n                                        \n\n      \n                                \n      SPRiNTER proudly presents...     \n                                \n      \n \n Greatest.Drives.Head.On.Sports.Cars.2004.DVDRip.XviD-SPRiNTER\n &lt;a href=&quot; http://www.allmovie.com/dvd/greatest-drives-head-on-sports-cars-125648&quot; rel=&quot;nofollow&quot; target=&quot;_NEW&quot;&gt; http://www.allmovie.com/dvd/greatest-drives-head-on-sports-cars-125648&lt;/a&gt;\n Subtitles: N/A\n\n Date: 2010.09\n\n Director: Greatest Drives\n Genre: Documentary | Sports\n\n\n Plot: Thirteen elite cars are put through their paces at the Ty Croes circuit in Wales. \n \n\n\n      \n                 \n      Release notes     \n                 \n      \n\n Enjoy!\n\n\n      \n           \n     Greetings    \n           \n      \n\n\nNTX aAF FiCO HNR CiNEFiLE AEN HUMANiSM\n\n\n      \n           \n      Details     \n           \n      \n\n\n Format                           : AVI\n Format/Info                      : Audio Video Interleave\n File size                        : 701 MiB\n Duration                         : 1h 19mn\n Overall bit rate                 : 1 238 Kbps\n Writing application              : VirtualDubMod 1.5.10.2 (build 2540/release)\n Writing library                  : VirtualDubMod build 2540/release\n \n Video\n ID                               : 0\n Format                           : MPEG-4 Visual\n Format profile                   : AdvancedSimple@L5\n Format settings, BVOP            : Yes\n Format settings, QPel            : No\n Format settings, GMC             : No warppoints\n Format settings, Matrix          : Default (H.263)\n Codec ID                         : XVID\n Codec ID/Hint                    : XviD\n Duration                         : 1h 19mn\n Bit rate                         : 1 064 Kbps\n Width                            : 576 pixels\n Height                           : 432 pixels\n Display aspect ratio             : 4:3\n Frame rate                       : 25.000 fps\n Resolution                       : 24 bits\n Colorimetry                      : 4:2:0\n Scan type                        : Progressive\n Bits/(Pixel*Frame)               : 0.171\n Stream size                      : 603 MiB (86%)\n Writing library                  : XviD 1.2.1 (UTC 2008-12-04)\n \n Audio\n ID                               : 1\n Format                           : MPEG Audio\n Format version                   : Version 1\n Format profile                   : Layer 3\n Codec ID                         : 55\n Codec ID/Hint                    : MP3\n Duration                         : 1h 19mn\n Bit rate mode                    : Variable\n Bit rate                         : 161 Kbps\n Channel(s)                       : 2 channels\n Sampling rate                    : 48.0 KHz\n Resolution                       : 16 bits\n Stream size                      : 91.2 MiB (13%)\n Alignment                        : Aligned on interleaves\n Interleave, duration             : 24 ms (0.60 video frame)\n Interleave, preload duration     : 496 ms\n Writing library                  : LAME3.89 (alpha)","torrent":{"xt":"urn:btih:e7c1ecb37c16ea174a8ffc9bcc14c2b5ed3b5405","amp;dn":"Greatest.Drives.Head.On.Sports.Cars.2004.DVDRip.XviD-SPRiNTER","amp;tr":["udp%3A%2F%2Ftracker.openbittorrent.com%3A80","udp%3A%2F%2Fopen.demonii.com%3A1337","udp%3A%2F%2Ftracker.coppersurfer.tk%3A6969","udp%3A%2F%2Fexodus.desync.com%3A6969"],"infoHash":"e7c1ecb37c16ea174a8ffc9bcc14c2b5ed3b5405","infoHashBuffer":{"type":"Buffer","data":[231,193,236,179,124,22,234,23,74,143,252,155,204,20,194,181,237,59,84,5]},"announce":[],"urlList":[]}}